<?xml version="1.0" encoding="UTF-8" ?>
<!DOCTYPE svg PUBLIC "-//W3C//DTD SVG 1.1//EN" "http://www.w3.org/Graphics/SVG/1.1/DTD/svg11.dtd">
<svg width="960pt" height="960pt" viewBox="0 0 960 960" version="1.1" xmlns="http://www.w3.org/2000/svg">
<g id="#ffffffff">
<path fill="#ffffff" opacity="1.00" d=" M 407.58 525.58 C 410.97 522.31 414.02 518.68 417.79 515.84 C 419.87 522.73 420.97 529.87 423.22 536.72 C 430.18 538.02 437.15 539.27 444.13 540.54 C 442.45 543.01 440.34 545.13 438.17 547.16 C 408.12 577.12 378.20 607.21 348.11 637.13 C 347.49 637.96 346.29 638.62 346.28 639.78 C 348.71 642.34 351.64 644.36 354.15 646.84 C 358.81 651.25 361.66 657.56 361.74 663.99 C 361.99 672.44 357.38 680.77 350.23 685.21 C 342.44 690.28 331.70 690.23 323.95 685.09 C 316.02 680.08 311.39 670.30 312.93 660.99 C 314.21 654.08 317.29 647.64 318.45 640.69 C 311.16 642.09 304.37 645.46 296.99 646.38 C 287.93 647.41 278.70 642.73 273.96 635.00 C 270.34 629.44 269.35 622.39 271.00 616.00 C 273.27 606.70 281.47 599.10 291.01 597.87 C 299.39 596.43 308.26 599.86 313.62 606.42 C 315.78 608.46 317.26 611.63 319.99 612.83 C 328.02 605.63 335.31 597.58 343.07 590.07 C 364.58 568.58 386.07 547.07 407.58 525.58 Z" />
</g>
<g id="#2b363cff">
<path fill="#2b363c" opacity="1.00" d=" M 561.41 257.47 C 576.11 252.42 591.94 250.75 607.36 252.70 C 623.80 254.96 639.52 261.48 653.16 270.87 C 666.43 280.00 677.84 291.62 687.68 304.31 C 699.85 320.25 708.64 339.64 708.49 360.00 C 708.90 376.92 703.36 393.47 695.11 408.06 C 681.25 432.28 660.97 452.05 639.55 469.61 C 609.75 493.81 577.14 514.48 543.04 532.07 C 515.20 546.18 486.13 558.87 455.18 564.15 C 452.77 564.64 450.30 564.69 447.87 564.38 C 422.76 589.20 397.91 614.28 372.92 639.22 C 375.27 643.95 378.12 648.53 379.23 653.77 C 381.27 662.80 380.89 672.57 377.22 681.15 C 372.61 692.42 362.94 701.51 351.41 705.44 C 338.90 709.84 324.37 708.12 313.34 700.71 C 301.41 693.14 294.21 679.41 293.67 665.42 C 282.01 665.09 270.51 659.99 262.70 651.30 C 253.27 641.02 249.15 625.99 252.47 612.40 C 254.85 601.87 261.27 592.29 270.24 586.26 C 280.89 578.79 295.01 576.76 307.41 580.56 C 311.87 581.81 315.88 584.19 319.92 586.39 C 345.30 561.14 370.71 535.89 395.84 510.39 C 395.19 509.20 394.00 508.08 394.44 506.61 C 396.77 489.10 401.69 472.06 407.44 455.40 C 419.04 422.84 434.15 391.57 451.98 361.98 C 468.47 335.04 487.19 308.99 510.99 288.00 C 525.80 274.95 542.64 263.85 561.41 257.47 M 532.57 294.62 C 506.76 314.66 487.04 341.29 469.89 368.83 C 452.00 398.07 436.83 429.04 425.36 461.36 C 422.66 469.82 419.24 478.15 417.96 486.98 C 416.70 489.57 416.17 492.41 415.51 495.19 C 421.39 497.80 427.83 498.70 433.77 501.15 C 435.41 507.00 436.62 512.97 438.20 518.85 C 438.38 520.30 440.09 520.37 441.18 520.72 C 447.59 522.03 454.10 522.83 460.46 524.41 C 461.81 530.40 462.46 536.57 464.37 542.43 L 463.62 542.84 C 471.74 541.83 479.39 538.63 487.13 536.14 C 520.77 523.89 552.42 506.73 582.56 487.53 C 610.18 469.54 636.99 449.73 659.26 425.27 C 671.05 411.98 681.66 397.05 686.89 379.88 C 690.24 368.53 691.19 355.94 687.26 344.62 C 687.47 343.51 686.95 342.44 686.69 341.40 C 681.96 327.50 673.23 315.35 663.30 304.69 C 651.54 291.89 637.22 281.02 620.67 275.28 C 617.71 274.31 614.74 273.03 611.58 273.07 C 605.07 270.53 597.91 270.69 591.04 270.79 C 569.47 271.63 549.42 281.70 532.57 294.62 M 407.58 525.58 C 386.07 547.07 364.58 568.58 343.07 590.07 C 335.31 597.58 328.02 605.63 319.99 612.83 C 317.26 611.63 315.78 608.46 313.62 606.42 C 308.26 599.86 299.39 596.43 291.01 597.87 C 281.47 599.10 273.27 606.70 271.00 616.00 C 269.35 622.39 270.34 629.44 273.96 635.00 C 278.70 642.73 287.93 647.41 296.99 646.38 C 304.37 645.46 311.16 642.09 318.45 640.69 C 317.29 647.64 314.21 654.08 312.93 660.99 C 311.39 670.30 316.02 680.08 323.95 685.09 C 331.70 690.23 342.44 690.28 350.23 685.21 C 357.38 680.77 361.99 672.44 361.74 663.99 C 361.66 657.56 358.81 651.25 354.15 646.84 C 351.64 644.36 348.71 642.34 346.28 639.78 C 346.29 638.62 347.49 637.96 348.11 637.13 C 378.20 607.21 408.12 577.12 438.17 547.16 C 440.34 545.13 442.45 543.01 444.13 540.54 C 437.15 539.27 430.18 538.02 423.22 536.72 C 420.97 529.87 419.87 522.73 417.79 515.84 C 414.02 518.68 410.97 522.31 407.58 525.58 Z" />
<path fill="#2b363c" opacity="1.00" d=" M 540.99 476.97 C 568.54 461.78 595.01 444.15 617.72 422.26 C 621.34 426.05 625.21 429.60 628.85 433.38 C 629.52 434.14 630.18 434.92 630.85 435.70 C 607.03 459.09 578.75 477.24 549.98 493.89 C 526.96 505.20 503.61 517.27 478.02 521.38 C 476.75 515.36 475.62 509.31 474.95 503.20 C 498.27 498.26 520.09 488.17 540.99 476.97 Z" />
</g>
<g id="#e2a437ff">
<path fill="#e2a437" opacity="1.00" d=" M 532.57 294.62 C 549.42 281.70 569.47 271.63 591.04 270.79 C 597.91 270.69 605.07 270.53 611.58 273.07 C 604.35 274.35 597.08 275.70 590.15 278.19 C 572.47 284.65 556.53 295.09 542.22 307.21 C 514.52 330.79 492.23 359.89 471.81 389.80 C 453.91 416.72 437.71 444.79 424.14 474.14 C 422.27 478.51 420.18 482.78 417.96 486.98 C 419.24 478.15 422.66 469.82 425.36 461.36 C 436.83 429.04 452.00 398.07 469.89 368.83 C 487.04 341.29 506.76 314.66 532.57 294.62 Z" />
</g>
<g id="#ffcb5dff">
<path fill="#ffcb5d" opacity="1.00" d=" M 611.58 273.07 C 614.74 273.03 617.71 274.31 620.67 275.28 C 637.22 281.02 651.54 291.89 663.30 304.69 C 673.23 315.35 681.96 327.50 686.69 341.40 C 686.95 342.44 687.47 343.51 687.26 344.62 C 685.52 350.82 684.64 357.27 682.29 363.30 C 677.78 375.23 670.97 386.16 663.32 396.32 C 653.10 409.79 641.26 421.94 628.85 433.38 C 625.21 429.60 621.34 426.05 617.72 422.26 C 595.01 444.15 568.54 461.78 540.99 476.97 C 520.09 488.17 498.27 498.26 474.95 503.20 C 475.62 509.31 476.75 515.36 478.02 521.38 C 503.61 517.27 526.96 505.20 549.98 493.89 C 545.15 498.62 539.09 501.72 533.53 505.46 C 511.38 519.38 488.50 532.28 464.37 542.43 C 462.46 536.57 461.81 530.40 460.46 524.41 C 454.10 522.83 447.59 522.03 441.18 520.72 C 440.09 520.37 438.38 520.30 438.20 518.85 C 436.62 512.97 435.41 507.00 433.77 501.15 C 427.83 498.70 421.39 497.80 415.51 495.19 C 416.17 492.41 416.70 489.57 417.96 486.98 C 420.18 482.78 422.27 478.51 424.14 474.14 C 437.71 444.79 453.91 416.72 471.81 389.80 C 492.23 359.89 514.52 330.79 542.22 307.21 C 556.53 295.09 572.47 284.65 590.15 278.19 C 597.08 275.70 604.35 274.35 611.58 273.07 Z" />
</g>
<g id="#f8e2b9ff">
<path fill="#f8e2b9" opacity="1.00" d=" M 682.29 363.30 C 684.64 357.27 685.52 350.82 687.26 344.62 C 691.19 355.94 690.24 368.53 686.89 379.88 C 681.66 397.05 671.05 411.98 659.26 425.27 C 636.99 449.73 610.18 469.54 582.56 487.53 C 552.42 506.73 520.77 523.89 487.13 536.14 C 479.39 538.63 471.74 541.83 463.62 542.84 L 464.37 542.43 C 488.50 532.28 511.38 519.38 533.53 505.46 C 539.09 501.72 545.15 498.62 549.98 493.89 C 578.75 477.24 607.03 459.09 630.85 435.70 C 630.18 434.92 629.52 434.14 628.85 433.38 C 641.26 421.94 653.10 409.79 663.32 396.32 C 670.97 386.16 677.78 375.23 682.29 363.30 Z" />
</g>
</svg>
